<?xml version="1.0" encoding="utf-8"?>
<!-- Generator: Adobe Illustrator 24.2.1, SVG Export Plug-In . SVG Version: 6.00 Build 0)  -->
<svg version="1.1" id="Layer_1" xmlns="http://www.w3.org/2000/svg" xmlns:xlink="http://www.w3.org/1999/xlink" x="0px" y="0px"
	 viewBox="0 0 302 425" style="enable-background:new 0 0 302 425;" xml:space="preserve">
<style type="text/css">
	.st0{fill:#FFFFFF;}
</style>
<g>
	<path class="st0" d="M201,100.6c0-5.1,4.1-9.2,9.2-9.2c5.1,0,9.2,4.1,9.2,9.2s-4.1,9.2-9.2,9.2C205.1,109.8,201,105.7,201,100.6
		 M213,115.1c6.8-1.3,12-7.3,12-14.5c0-8.2-6.6-14.8-14.8-14.8s-14.8,6.6-14.8,14.8c0,7.2,5.2,13.2,12,14.5v76.6l-37.8,62.4v51h5.6
		v-49.4l37.8-62.4V115.1z"/>
	<path class="st0" d="M191.3,193.3V123l-13.5-17.3l-0.4,0.3v-36c3.8-1.3,6.5-4.9,6.5-9.1c0-5.3-4.3-9.6-9.6-9.6
		c-5.3,0-9.6,4.3-9.6,9.6c0,4.4,3,8.2,7.1,9.3v121.5l-37.8,62.4v75.8h5.6v-74.2l37.8-62.4v-79.1l8.4,10.7v66.8l-37.4,61.7l-0.4,0.7
		v68.8h5.6v-67.2L191.3,193.3z"/>
	<path class="st0" d="M60.7,99.1c0-6.3,5.2-11.5,11.5-11.5c3.1,0,6,1.2,8.1,3.4c2.2,2.2,3.4,5.1,3.4,8.1c0,6.3-5.2,11.5-11.5,11.5h0
		C65.8,110.6,60.7,105.5,60.7,99.1 M75,116c8.1-1.3,14.3-8.4,14.3-16.9c0-9.4-7.7-17.1-17.1-17.1c-9.4,0-17.1,7.7-17.1,17.1
		c0,8.5,6.2,15.5,14.3,16.9v77.3l37.8,62.4v59.8h5.6v-61.4L75,191.7C75,191.7,75,116,75,116z"/>
	<path class="st0" d="M77.6,99.1c0-3-2.4-5.4-5.4-5.4c-3,0-5.4,2.4-5.4,5.4c0,3,2.4,5.4,5.4,5.4C75.2,104.6,77.6,102.1,77.6,99.1"/>
	<path class="st0" d="M116.2,70.5c0-3.3,2.7-6,6-6c3.3,0,6,2.7,6,6c0,1.6-0.6,3.1-1.8,4.2c-1.1,1.1-2.7,1.8-4.3,1.8
		c-1.6,0-3.1-0.6-4.2-1.8C116.9,73.6,116.2,72.1,116.2,70.5 M142.8,187.9l-17.7-23.1V81.7c5.1-1.2,8.8-5.8,8.8-11.3
		c0-6.4-5.2-11.6-11.6-11.6c-6.4,0-11.6,5.2-11.6,11.6c0,5.4,3.8,10,8.8,11.3v85l17.7,23.1v33.6l-17.7,29.8v69.9h5.6v-68.4
		l17.7-29.8L142.8,187.9z"/>
	<path class="st0" d="M229.4,176.5c-3.3,0-6-2.7-6-6s2.7-6,6-6c3.3,0,6,2.7,6,6S232.7,176.5,229.4,176.5 M197.4,281.9
		c0,3.3-2.7,6-6,6c-3.3,0-6-2.7-6-6c0-3.3,2.7-6,6-6c1.6,0,3.1,0.6,4.2,1.8C196.8,278.8,197.4,280.3,197.4,281.9 M241,170.5
		c0-6.4-5.2-11.6-11.6-11.6s-11.6,5.2-11.6,11.6c0,5.4,3.7,10,8.8,11.3v14.6l-38,57.4v16.8c-5.1,1.2-8.8,5.8-8.8,11.3
		c0,6.4,5.2,11.6,11.6,11.6s11.6-5.2,11.6-11.6c0-5.5-3.8-10-8.8-11.3v-15.2l38-57.4v-16.2C237.2,180.5,241,176,241,170.5"/>
	<path class="st0" d="M144.7,15.7c3.3,0,6,2.7,6,6c0,3.3-2.7,6-6,6c-3.3,0-6-2.7-6-6C138.7,18.4,141.4,15.7,144.7,15.7 M162.9,189.6
		c0,3.3-2.7,6-6,6c-3.3,0-6-2.7-6-6c0-3.3,2.7-6,6-6C160.2,183.6,162.9,186.3,162.9,189.6 M141.9,33v111.8l11.9,8.7v24.9
		c-4.9,1.3-8.6,5.9-8.6,11.2c0,6.4,5.2,11.6,11.6,11.6s11.6-5.2,11.6-11.6c0-5.5-3.9-10.2-9.1-11.3v-27.6l-11.9-8.7V33
		c5.1-1.2,8.8-5.8,8.8-11.3c0-6.4-5.2-11.6-11.6-11.6s-11.6,5.2-11.6,11.6C133.1,27.1,136.9,31.7,141.9,33"/>
	<path class="st0" d="M85.8,142.1c0-3.3,2.7-6,6-6c3.3,0,6,2.7,6,6c0,3.3-2.7,6-6,6C88.5,148.1,85.8,145.4,85.8,142.1 M125.3,227.6
		c0-0.1,0-0.3,0-0.4c0,0,0,0,0,0c0-0.1,0-0.3,0-0.4c0,0,0,0,0-0.1c-0.3-3.1-2.2-5.6-4.9-6.9v-30.9l-25.8-24.4v-11.1
		c5.1-1.2,8.8-5.8,8.8-11.3c0-6.4-5.2-11.6-11.6-11.6s-11.6,5.2-11.6,11.6c0,5.4,3.8,10,8.8,11.3v13.5l25.8,24.4v27.8
		c0,0-0.1,0-0.1,0c-0.1,0-0.1,0-0.2,0.1c-0.1,0-0.1,0-0.2,0.1c-0.1,0-0.2,0-0.2,0.1c-0.1,0-0.1,0-0.2,0.1c-0.1,0-0.2,0.1-0.2,0.1
		c-0.1,0-0.1,0-0.2,0.1c-0.1,0-0.2,0.1-0.2,0.1c-0.1,0-0.1,0.1-0.2,0.1c-0.1,0-0.2,0.1-0.2,0.1c-0.1,0-0.1,0-0.1,0.1
		c-0.1,0-0.2,0.1-0.2,0.1c0,0-0.1,0-0.1,0.1c-0.1,0.1-0.2,0.1-0.3,0.1c0,0-0.1,0.1-0.1,0.1c-0.1,0.1-0.2,0.1-0.2,0.2
		c0,0-0.1,0-0.1,0.1c-0.1,0.1-0.2,0.1-0.3,0.2c0,0,0,0-0.1,0.1c-0.1,0.1-0.2,0.1-0.3,0.2c0,0,0,0-0.1,0c-0.1,0.1-0.2,0.1-0.3,0.2
		c0,0,0,0-0.1,0.1c-0.1,0.1-0.2,0.2-0.3,0.2c0,0,0,0,0,0c-0.1,0.1-0.2,0.2-0.3,0.3c0,0,0,0,0,0c-0.2,0.2-0.3,0.4-0.5,0.6
		c0,0,0,0,0,0c-0.1,0.1-0.2,0.2-0.2,0.3c0,0,0,0,0,0c-0.2,0.2-0.3,0.5-0.4,0.7c0,0,0,0,0,0c-0.1,0.1-0.1,0.2-0.2,0.3c0,0,0,0,0,0
		c-0.1,0.1-0.1,0.2-0.2,0.4c0,0,0,0.1,0,0.1c-0.1,0.1-0.1,0.2-0.1,0.3c0,0,0,0,0,0.1c0,0.1-0.1,0.2-0.1,0.3c0,0,0,0.1,0,0.1
		c-0.1,0.2-0.1,0.5-0.2,0.8c0,0.1,0,0.1,0,0.1c0,0.1,0,0.2-0.1,0.3c0,0.1,0,0.1,0,0.2c0,0.1,0,0.2,0,0.3c0,0.1,0,0.1,0,0.2
		c0,0.2,0,0.5,0,0.7c0,4.8,3.9,8.7,8.7,8.7C121.4,236.3,125.3,232.4,125.3,227.6"/>
	<path class="st0" d="M55.7,339.1c-4.2,0-7.5-3.4-7.5-7.5c0-4.2,3.4-7.5,7.5-7.5c4.2,0,7.5,3.4,7.5,7.5S59.8,339.1,55.7,339.1"/>
	<path class="st0" d="M31.4,380.5c0-5.1-2.1-8.3-6.6-8.3h-6.4v27.3h6.4c4.5,0,6.6-3,6.6-8V380.5z M30.4,345.6c0-5.7-2-8.3-5.9-8.3
		s-6.1,0.4-6.1,0.4v25.6h5.3c4.5,0,6.7-3.2,6.7-8.3V345.6z M24.8,409.3H7.7v-81.7h16.7C35,327.7,41,334,41,345v10.5
		c0,5.3-2.5,9.4-6.2,11.6c4.5,1.9,7.2,6.7,7.2,12.9v11.8C42,402.4,37,409.3,24.8,409.3"/>
</g>
<rect x="50.4" y="345.6" class="st0" width="10.5" height="63.7"/>
<g>
	<path class="st0" d="M92.3,362.6c0-5.7-2.6-8.4-6.6-8.4s-6.6,2.7-6.6,8.4v29.8c0,5.7,2.6,8.4,6.6,8.4s6.6-2.7,6.6-8.4V362.6z
		 M85.8,410.3c-10.6,0-17.1-6.3-17.1-17.3v-31.1c0-11,6.4-17.3,17.1-17.3s17.1,6.3,17.1,17.3V393C102.9,404,96.4,410.3,85.8,410.3"
		/>
	<path class="st0" d="M154.3,409.3v-46.8c0-5.7-1.9-8.4-5.8-8.4c-4,0-5.8,2.7-5.8,8.4v46.8h-10.5v-46.8c0-5.7-1.9-8.4-5.8-8.4
		s-5.8,2.7-5.8,8.4v46.8H110v-47.4c0-11,5.7-17.3,16.3-17.3c5.3,0,9,2.4,11,5.6c2.1-3.2,5.8-5.6,11.1-5.6c10.6,0,16.3,6.3,16.3,17.3
		v47.4L154.3,409.3L154.3,409.3z"/>
	<path class="st0" d="M195.6,362.6c0-5.7-2.6-8.4-6.6-8.4c-4,0-6.6,2.7-6.6,8.4v29.8c0,5.7,2.6,8.4,6.6,8.4c4,0,6.6-2.7,6.6-8.4
		V362.6z M189.1,410.3c-10.6,0-17.1-6.3-17.1-17.3v-31.1c0-11,6.4-17.3,17.1-17.3s17.1,6.3,17.1,17.3V393
		C206.2,404,199.7,410.3,189.1,410.3"/>
	<path class="st0" d="M236.5,362.6c0-5.7-2.6-8.4-6.6-8.4c-4,0-6.6,2.7-6.6,8.4v29.8c0,5.7,2.6,8.3,6.6,8.3c4,0,6.6-2.6,6.6-8.3
		V362.6z M229.9,410.3c-10.6,0-17.1-6.3-17.1-17.3v-31.1c0-11.1,4.7-17.3,14.7-17.3c3.6,0,7.8,2.1,8.9,5v-25.9H247V393
		C247,404,240.6,410.3,229.9,410.3"/>
	<path class="st0" d="M277.8,362.6c0-5.7-2.6-8.4-6.6-8.4s-6.6,2.7-6.6,8.4v29.8c0,5.7,2.6,8.3,6.6,8.3s6.6-2.6,6.6-8.3V362.6z
		 M271.2,410.3c-10.6,0-17.1-6.3-17.1-17.3v-31.1c0-11.1,4.7-17.3,14.7-17.3c3.6,0,7.8,2.1,8.9,5v-25.9h10.5V393
		C288.3,404,281.9,410.3,271.2,410.3"/>
</g>
</svg>
